<svg id="providence_logo_9" fill="" xmlns="http://www.w3.org/2000/svg" width="690" height="690" viewBox="0 0 690 690">
  <defs>
    <clipPath id="clip-path">
      <path id="Clip_2" d="M0,0H690V690H0Z" fill="none"/>
    </clipPath>
  </defs>
  <path id="Clip_2-2" d="M0,0H690V690H0Z" fill="none"/>
  <g id="Page_1-2" clip-path="url(#clip-path)">
    <path id="Fill_1" d="M345,690C154.766,690,0,535.234,0,345S154.766,0,345,0,690,154.766,690,345,535.234,690,345,690ZM345,7.3C158.792,7.3,7.3,158.792,7.3,345S158.792,682.7,345,682.7,682.7,531.208,682.7,345,531.208,7.3,345,7.3Zm-2.8,661.136H342.2a15.4,15.4,0,0,1-10.993-4.227,1.309,1.309,0,0,1-.456-.946,1.28,1.28,0,0,1,.394-.956l2.687-2.778a1.174,1.174,0,0,1,.836-.4,1.382,1.382,0,0,1,.923.4A9.914,9.914,0,0,0,342.065,662h.007a9.8,9.8,0,0,0-.04-19.587h-.014a10.106,10.106,0,0,0-6.458,2.409,1.3,1.3,0,0,1-.853.317,1.224,1.224,0,0,1-.866-.346l-2.742-2.833a1.121,1.121,0,0,1-.35-.815,1.4,1.4,0,0,1,.4-1.021,15.6,15.6,0,0,1,11.062-4.414,16.375,16.375,0,0,1,11.61,4.754A16.383,16.383,0,0,1,342.2,668.438Zm51.761-3.954a1.315,1.315,0,0,1-.737-.233,1.271,1.271,0,0,1-.552-.818l-5.626-29.21a1.229,1.229,0,0,1,.19-.916,1.341,1.341,0,0,1,.843-.558l1.242-.238.164.117,21.087,15.764-3.388-17.556a1.3,1.3,0,0,1,1.033-1.518l3.95-.76a1.167,1.167,0,0,1,.226-.022,1.33,1.33,0,0,1,.741.237,1.266,1.266,0,0,1,.547.815l5.626,29.206a1.212,1.212,0,0,1-.19.924,1.305,1.305,0,0,1-.847.551L417,660.52l-.16-.113-20.872-15.074,3.245,16.845a1.323,1.323,0,0,1-.2.971,1.3,1.3,0,0,1-.833.547l-3.986.767A1.224,1.224,0,0,1,393.964,664.484Zm-97.921-.109a1.683,1.683,0,0,1-.23-.019l-17.688-3.183a1.307,1.307,0,0,1-1.045-1.508l.639-3.563a1.327,1.327,0,0,1,1.293-1.062,1.229,1.229,0,0,1,.211.018l12.419,2.23,1.118-6.228-10.284-1.851a1.333,1.333,0,0,1-1.048-1.5l.653-3.611a1.276,1.276,0,0,1,.529-.833,1.329,1.329,0,0,1,.747-.232,1.259,1.259,0,0,1,.227.021l10.284,1.843,1.205-6.7-12.416-2.235a1.288,1.288,0,0,1-1.045-1.508l.643-3.56a1.308,1.308,0,0,1,.53-.833,1.279,1.279,0,0,1,.737-.237,1.307,1.307,0,0,1,.238.022l17.691,3.183a1.3,1.3,0,0,1,1.044,1.508l-5.177,28.776A1.3,1.3,0,0,1,296.043,664.375Zm157.436-15.063a1.272,1.272,0,0,1-.511-.106,1.3,1.3,0,0,1-.689-.723l-1.322-3.37a1.292,1.292,0,0,1,.742-1.679l11.744-4.6-2.3-5.892-9.733,3.8a1.317,1.317,0,0,1-1.679-.737l-1.339-3.414a1.276,1.276,0,0,1,.022-.989,1.312,1.312,0,0,1,.716-.69l9.733-3.808-2.479-6.345-11.752,4.593a1.342,1.342,0,0,1-.476.088,1.294,1.294,0,0,1-.513-.106,1.313,1.313,0,0,1-.69-.716l-1.318-3.37a1.3,1.3,0,0,1,.738-1.679l16.738-6.546a1.26,1.26,0,0,1,1.008.025,1.289,1.289,0,0,1,.671.7L471.434,641a1.294,1.294,0,0,1-.734,1.679l-16.746,6.546A1.263,1.263,0,0,1,453.479,649.312ZM203.222,633.745a16.286,16.286,0,0,1-7.474-1.814,15.4,15.4,0,0,1-7.864-8.766,1.276,1.276,0,0,1,.807-1.719l3.659-1.245a1.152,1.152,0,0,1,.449-.091,1.079,1.079,0,0,1,.471.106,1.251,1.251,0,0,1,.643.778,9.93,9.93,0,0,0,4.648,5.147,9.078,9.078,0,0,0,7.3.461,10.069,10.069,0,0,0,5.535-4.944,9.862,9.862,0,0,0,.717-7.407,9.251,9.251,0,0,0-4.685-5.564,9.612,9.612,0,0,0-4.435-1.057,11.74,11.74,0,0,0-2.429.264,1.181,1.181,0,0,1-.328.047,1.251,1.251,0,0,1-1.179-.857l-1.154-3.767a1.136,1.136,0,0,1,.055-.891,1.4,1.4,0,0,1,.829-.723,15.545,15.545,0,0,1,4.584-.7,15.81,15.81,0,0,1,7.259,1.8,16.368,16.368,0,0,1,8.182,9.51,16.394,16.394,0,0,1-10.543,20.631A16.337,16.337,0,0,1,203.222,633.745ZM345,621.84C192.35,621.84,68.161,497.65,68.161,345S192.35,68.161,345,68.161,621.843,192.35,621.843,345,497.652,621.84,345,621.84Zm0-546.377C196.376,75.462,75.462,196.376,75.462,345S196.376,614.538,345,614.538,614.542,493.624,614.542,345,493.626,75.462,345,75.462ZM507.964,621.3a16.15,16.15,0,0,1-3.651-.42,15.71,15.71,0,0,1-9.9-7.06,15.99,15.99,0,0,1,5.155-21.992l8.9-5.52a1.227,1.227,0,0,1,.642-.18,1.316,1.316,0,0,1,1.111.621l15.422,24.865a1.3,1.3,0,0,1-.38,1.763l-8.9,5.521A15.915,15.915,0,0,1,507.964,621.3Zm-.731-26.808-3.9,2.417a9.372,9.372,0,0,0-4.326,5.921,9.766,9.766,0,0,0,1.358,7.294,9.358,9.358,0,0,0,7.989,4.694A9.816,9.816,0,0,0,513.5,613.3l3.9-2.413-10.167-16.393ZM156.75,607.343a1.275,1.275,0,0,1-.8-.266l-3.242-2.519a1.294,1.294,0,0,1-.22-1.814l6.911-8.879-10.634-8.291-6.918,8.876a1.3,1.3,0,0,1-1.818.226l-3.206-2.5a1.33,1.33,0,0,1-.222-1.814l17.977-23.069a1.271,1.271,0,0,1,.851-.475,1.481,1.481,0,0,1,.165-.009,1.328,1.328,0,0,1,.806.261l3.2,2.5a1.289,1.289,0,0,1,.5.858,1.315,1.315,0,0,1-.266.96l-7.214,9.258,10.639,8.287,7.21-9.258a1.308,1.308,0,0,1,1.822-.219l3.238,2.523a1.318,1.318,0,0,1,.223,1.818L157.776,606.86a1.3,1.3,0,0,1-.868.475A1.137,1.137,0,0,1,156.75,607.343Zm190.988-6.013h-5.477V577.814h5.477v23.514Zm21.331-1.117h0l-2.457-23.383,5.448-.57,2.457,23.384-5.447.57Zm-48.143,0h0l-5.446-.57,2.461-23.384,5.447.57-2.461,23.383Zm74.688-3.91h0l-4.889-23,5.356-1.139,4.889,23-5.355,1.142Zm-101.233,0h0l-5.355-1.142,4.889-23,5.355,1.139-4.888,23Zm260.524-6.137a.776.776,0,0,1-.091,0,1.29,1.29,0,0,1-.891-.43l-19.218-22.036a1.275,1.275,0,0,1-.307-.942,1.3,1.3,0,0,1,.431-.883l3.1-2.7a1.471,1.471,0,0,1,.927-.307h.018a1.3,1.3,0,0,1,.884.431l19.221,22.036a1.339,1.339,0,0,1-.124,1.825l-3.1,2.7A1.265,1.265,0,0,1,554.906,590.165Zm-133.3-.533h0l-7.265-22.364,5.206-1.69,7.265,22.365-5.2,1.69Zm-153.213,0h0l-5.2-1.69,7.265-22.365,5.206,1.69-7.264,22.364Zm178.363-9.349h0l-9.56-21.481,5-2.223,9.562,21.481-5,2.223Zm-203.513,0h0l-5-2.223,9.565-21.481,5,2.223-9.565,21.481ZM470.8,568.363h0l-11.759-20.367,4.743-2.738,11.758,20.368-4.741,2.737Zm-251.594,0h0l-4.742-2.737,11.759-20.368,4.742,2.738L219.2,568.362Zm-109.674-2.617a1.31,1.31,0,0,1-.986-.431l-2.749-3.172a1.3,1.3,0,0,1,.128-1.829l13.654-11.85a5.912,5.912,0,0,0,.825-8.6,5.845,5.845,0,0,0-4.444-2.108,6.339,6.339,0,0,0-4.182,1.656L98.089,551.288a1.294,1.294,0,0,1-.84.318c-.035,0-.07,0-.1,0a1.292,1.292,0,0,1-.884-.442l-2.752-3.173a1.322,1.322,0,0,1,.128-1.825l13.887-12.055a12.592,12.592,0,0,1,8.23-3.108,12.444,12.444,0,0,1,5.2,1.135,13.1,13.1,0,0,1,4.473,3.367,12.544,12.544,0,0,1-1.168,17.889l-13.888,12.051A1.3,1.3,0,0,1,109.527,565.745ZM345,564.1c-120.815,0-219.106-98.289-219.106-219.1S224.184,125.894,345,125.894,564.1,224.184,564.1,345,465.813,564.1,345,564.1ZM345,133.2C228.21,133.2,133.2,228.21,133.2,345S228.21,556.8,345,556.8,556.8,461.787,556.8,345,461.787,133.2,345,133.2ZM582.627,563.668a1.124,1.124,0,0,1-.154-.007,1.256,1.256,0,0,1-.971-.745l-14.029-29.56a1.251,1.251,0,0,1,.171-1.372l.285-.343a1.234,1.234,0,0,1,.955-.456,1.483,1.483,0,0,1,.359.046l31.565,8.587a1.236,1.236,0,0,1,.632,2.048l-2.888,3.453a1.27,1.27,0,0,1-.977.463,1.146,1.146,0,0,1-.366-.058l-19.371-5.483,8.842,18.1a1.248,1.248,0,0,1-.16,1.377l-2.9,3.457A1.288,1.288,0,0,1,582.627,563.668Zm-89.171-9.682h0l-13.821-19.023,4.428-3.217,13.822,19.024-4.428,3.216Zm-296.912,0h0l-4.427-3.216,13.822-19.024,4.428,3.217-13.822,19.023Zm317.94-16.659h0l-15.734-17.475,4.071-3.665,15.735,17.476-4.07,3.664Zm-338.972,0h0l-4.07-3.664,15.739-17.476,4.071,3.665-15.738,17.475ZM345,536.572c-1.967,0-3.962-.033-5.928-.1a7.625,7.625,0,0,1-7.32-6.666A200.237,200.237,0,0,0,318.4,479.864a7.809,7.809,0,0,1,.482-6.9,7.489,7.489,0,0,1,5.64-3.679,176.915,176.915,0,0,1,40.947,0,7.49,7.49,0,0,1,5.637,3.679,7.806,7.806,0,0,1,.482,6.9A200.308,200.308,0,0,0,358.241,529.8a7.624,7.624,0,0,1-7.316,6.677C348.921,536.54,346.928,536.572,345,536.572Zm0-61.184a169.517,169.517,0,0,0-19.63,1.143c-.234.2-.295.36-.215.554a207.442,207.442,0,0,1,13.836,51.754.358.358,0,0,0,.307.336c1.891.06,3.827.091,5.753.091,1.877,0,3.777-.029,5.649-.086a.362.362,0,0,0,.307-.337,207.372,207.372,0,0,1,13.837-51.757.481.481,0,0,0-.022-.423A148.568,148.568,0,0,0,345,475.388ZM391.657,530.6a7.545,7.545,0,0,1-5.192-2.077,7.743,7.743,0,0,1-2.281-7.2,175.815,175.815,0,0,1,12.38-38.206,7.727,7.727,0,0,1,7.022-4.493,7.571,7.571,0,0,1,2.66.481,175.744,175.744,0,0,1,35.734,18.255,7.763,7.763,0,0,1,3.482,6.706,7.541,7.541,0,0,1-3.741,6.323,190.563,190.563,0,0,1-48.137,19.966A7.929,7.929,0,0,1,391.657,530.6ZM403.2,486.144a168.81,168.81,0,0,0-11.857,36.616.48.48,0,0,0,.135.449,178.759,178.759,0,0,0,46.551-19.126c.136-.329.111-.511-.091-.646a168.207,168.207,0,0,0-34.244-17.5.364.364,0,0,0-.1-.012.451.451,0,0,0-.4.22ZM298.339,530.6a7.758,7.758,0,0,1-1.924-.244,190.492,190.492,0,0,1-48.143-19.97,7.534,7.534,0,0,1-3.735-6.323,7.744,7.744,0,0,1,3.479-6.7A175.719,175.719,0,0,1,283.75,479.1a7.584,7.584,0,0,1,2.658-.479,7.729,7.729,0,0,1,7.024,4.488,175.694,175.694,0,0,1,12.38,38.21,7.747,7.747,0,0,1-2.279,7.2A7.545,7.545,0,0,1,298.339,530.6Zm-11.92-44.671a.575.575,0,0,0-.117.014,168.209,168.209,0,0,0-34.244,17.5.463.463,0,0,0-.223.416,178.9,178.9,0,0,0,46.424,19.429c.328-.138.439-.286.394-.526A168.819,168.819,0,0,0,286.8,486.143.435.435,0,0,0,286.42,485.924Zm247.243,32.63h0L516.186,502.82l3.665-4.071,17.476,15.735-3.664,4.07Zm-377.324,0h0l-3.665-4.07,17.473-15.735,3.666,4.071-17.472,15.734Zm-84.126-1.482a1.307,1.307,0,0,1-1.12-.643l-6.367-10.922a10.119,10.119,0,0,1-1.07-7.623,9.807,9.807,0,0,1,4.6-6.112,9.394,9.394,0,0,1,4.722-1.269,10.95,10.95,0,0,1,6.381,2.156L85.75,482.2a1.366,1.366,0,0,1,1.149-.668h.015a1.275,1.275,0,0,1,1.1.683l2.34,4.012a1.212,1.212,0,0,1,0,1.289l-7.007,10.737,2.1,3.6,9.346-5.443a1.271,1.271,0,0,1,.636-.164,1.478,1.478,0,0,1,.339.04,1.317,1.317,0,0,1,.8.595l2.048,3.513a1.27,1.27,0,0,1,.128,1,1.3,1.3,0,0,1-.595.77L72.862,516.9A1.311,1.311,0,0,1,72.212,517.073Zm1.519-20.141a4.064,4.064,0,0,0-2.052.555,3.7,3.7,0,0,0-1.724,2.307,3.975,3.975,0,0,0,.391,3l3.392,5.83,6.812-3.965-3.4-5.83A3.942,3.942,0,0,0,73.732,496.931Zm539.693,13.684a16.486,16.486,0,0,1-8.01-2.1,16.176,16.176,0,0,1-6.3-22.241,16.525,16.525,0,0,1,6.074-6.249,16.031,16.031,0,0,1,8.08-2.187,16.63,16.63,0,0,1,8.049,2.117,16.346,16.346,0,0,1-7.889,30.659Zm-.033-26.06a9.668,9.668,0,0,0-9.313,12.329,9.549,9.549,0,0,0,4.571,5.812,9.681,9.681,0,0,0,4.7,1.22,10.053,10.053,0,0,0,2.7-.373,9.683,9.683,0,0,0-2.657-18.988Zm-62.619,13.33h0l-19.027-13.822,3.217-4.428,19.028,13.821-3.216,4.428Zm-411.547,0h0l-3.215-4.428,19.028-13.821,3.216,4.428-19.027,13.822ZM471.01,486.644a7.66,7.66,0,0,1-4.713-1.617,200.622,200.622,0,0,0-44.722-25.855,7.807,7.807,0,0,1-4.549-5.213,7.513,7.513,0,0,1,1.383-6.6,174.87,174.87,0,0,1,28.955-28.955,7.443,7.443,0,0,1,4.659-1.629,7.7,7.7,0,0,1,1.935.249,7.807,7.807,0,0,1,5.213,4.549A200.682,200.682,0,0,0,485.03,466.3a7.618,7.618,0,0,1-.464,9.915c-2.68,2.859-5.491,5.669-8.353,8.353A7.539,7.539,0,0,1,471.01,486.644ZM452.121,424.1A147.387,147.387,0,0,0,437.2,437.2a168.71,168.71,0,0,0-13.055,14.687c-.026.317.037.466.233.551a207.422,207.422,0,0,1,46.358,26.8.457.457,0,0,0,.271.1.294.294,0,0,0,.207-.077c2.751-2.587,5.456-5.292,8.04-8.04a.379.379,0,0,0-.015-.482,207.193,207.193,0,0,1-26.8-46.358A.453.453,0,0,0,452.121,424.1ZM218.989,486.644a7.558,7.558,0,0,1-5.209-2.077c-2.866-2.687-5.676-5.5-8.353-8.353a7.625,7.625,0,0,1-.464-9.908,200.621,200.621,0,0,0,25.865-44.737,7.811,7.811,0,0,1,5.214-4.541,7.641,7.641,0,0,1,1.935-.251,7.44,7.44,0,0,1,4.659,1.634,174.972,174.972,0,0,1,28.954,28.951,7.522,7.522,0,0,1,1.384,6.593,7.817,7.817,0,0,1-4.545,5.216,200.68,200.68,0,0,0-44.734,25.859A7.667,7.667,0,0,1,218.989,486.644ZM238,424.138c-.237,0-.357.066-.431.237a207.32,207.32,0,0,1-26.8,46.358.381.381,0,0,0-.018.478c2.585,2.75,5.29,5.455,8.039,8.04a.3.3,0,0,0,.215.082.444.444,0,0,0,.264-.093,207.3,207.3,0,0,1,46.364-26.8.471.471,0,0,0,.278-.314A149.7,149.7,0,0,0,252.8,437.2a168.366,168.366,0,0,0-14.691-13.055C238.068,424.138,238.033,424.138,238,424.138Zm327.63,51.4h0l-20.367-11.758,2.738-4.743L568.363,470.8l-2.737,4.741Zm-441.249,0h0l-2.738-4.741L142,459.036l2.739,4.743-20.364,11.758ZM55.269,462.855a16.387,16.387,0,0,1-15.4-10.886,15.423,15.423,0,0,1,.278-11.777,1.289,1.289,0,0,1,.726-.745,1.217,1.217,0,0,1,.454-.087,1.357,1.357,0,0,1,.582.135l3.519,1.592a1.154,1.154,0,0,1,.657.639,1.258,1.258,0,0,1-.058,1.011,10,10,0,0,0-.147,6.936,9.121,9.121,0,0,0,5.006,5.338,9.84,9.84,0,0,0,3.926.808,10.336,10.336,0,0,0,3.5-.615A9.864,9.864,0,0,0,63.9,450.3a9.249,9.249,0,0,0,.4-7.264,10.157,10.157,0,0,0-4.454-5.279,1.261,1.261,0,0,1-.547-1.617l1.745-3.545a1.114,1.114,0,0,1,.639-.606,1.337,1.337,0,0,1,.5-.1,1.44,1.44,0,0,1,.6.132,15.53,15.53,0,0,1,7.881,8.918,16.362,16.362,0,0,1-.554,12.53,16.186,16.186,0,0,1-9.277,8.415A16.588,16.588,0,0,1,55.269,462.855ZM641.7,454.838a9.817,9.817,0,0,1-3.048-.485,9.394,9.394,0,0,1-4.586-3.291,11.2,11.2,0,0,1-2.132-5.588l-12.051,2.172a1.512,1.512,0,0,1-.267.024,1.278,1.278,0,0,1-1.233-1.721l1.445-4.41a1.226,1.226,0,0,1,.96-.859l12.672-1.9,1.292-3.957-10.27-3.355a1.325,1.325,0,0,1-.829-1.635l1.26-3.863a1.3,1.3,0,0,1,1.243-.892,1.322,1.322,0,0,1,.392.06l27.789,9.079a1.309,1.309,0,0,1,.756.658,1.254,1.254,0,0,1,.066.982l-3.913,12.007a10.1,10.1,0,0,1-3.721,5.086A9.935,9.935,0,0,1,641.7,454.838Zm-1.6-18.224-2.1,6.411a3.8,3.8,0,0,0,.263,2.928A4.048,4.048,0,0,0,640.642,448a3.493,3.493,0,0,0,1.12.183,3.873,3.873,0,0,0,1.749-.428,3.978,3.978,0,0,0,1.979-2.286l2.1-6.407-7.484-2.445ZM578.059,451.76h0L556.582,442.2l2.223-5,21.482,9.561-2.227,5Zm-466.123,0h0l-2.223-5,21.485-9.561,2.224,5-21.485,9.561Zm272.456-4.088a7.59,7.59,0,0,1-1.464-.143,202.039,202.039,0,0,0-75.86,0,7.752,7.752,0,0,1-1.449.135,7.613,7.613,0,0,1-6.305-3.347,200.816,200.816,0,0,0-53.637-53.637,7.631,7.631,0,0,1-3.209-7.754,201.126,201.126,0,0,0,0-75.86,7.62,7.62,0,0,1,3.209-7.751,200.842,200.842,0,0,0,53.641-53.641,7.61,7.61,0,0,1,6.287-3.356,7.419,7.419,0,0,1,1.468.147,202.043,202.043,0,0,0,75.86,0,7.6,7.6,0,0,1,7.75,3.209,200.946,200.946,0,0,0,53.642,53.644,7.613,7.613,0,0,1,3.209,7.754,201.154,201.154,0,0,0,0,75.857,7.617,7.617,0,0,1-3.208,7.75,200.863,200.863,0,0,0-53.641,53.642A7.6,7.6,0,0,1,384.393,447.672ZM305.685,249.637h0a227.146,227.146,0,0,1-25.472,30.576,208.235,208.235,0,0,1-30.444,25.151A227.011,227.011,0,0,1,253.376,345a208.274,208.274,0,0,1-3.739,39.312,227.092,227.092,0,0,1,30.576,25.472,208.185,208.185,0,0,1,25.151,30.443.3.3,0,0,0,.263.14.421.421,0,0,0,.058,0,209.543,209.543,0,0,1,78.627,0,227.264,227.264,0,0,1,25.472-30.575,208.133,208.133,0,0,1,30.443-25.15A227.02,227.02,0,0,1,436.621,345a208.344,208.344,0,0,1,3.738-39.311,227.186,227.186,0,0,1-30.575-25.475,208.392,208.392,0,0,1-25.15-30.444,227.592,227.592,0,0,1-39.719,3.557,208.024,208.024,0,0,1-39.229-3.688Zm198.15,195.828a7.76,7.76,0,0,1-6.48-3.49A175.464,175.464,0,0,1,479.1,406.249l0,0a7.726,7.726,0,0,1,4.012-9.682,175.968,175.968,0,0,1,38.2-12.38,8.132,8.132,0,0,1,1.555-.151,7.707,7.707,0,0,1,5.651,2.433,7.549,7.549,0,0,1,1.833,7.119,190.526,190.526,0,0,1-19.97,48.14,7.524,7.524,0,0,1-6.323,3.738C503.985,445.466,503.909,445.466,503.835,445.466Zm19.025-54.135a.518.518,0,0,0-.107.012,168.856,168.856,0,0,0-36.61,11.857.43.43,0,0,0-.2.5,168.366,168.366,0,0,0,17.5,34.241c.11.16.229.248.333.248a.171.171,0,0,0,.083-.021,179,179,0,0,0,19.429-46.427C523.156,391.445,523.038,391.331,522.86,391.331Zm-336.7,54.135h-.113l-.113,0a7.538,7.538,0,0,1-6.322-3.741,190.6,190.6,0,0,1-19.974-48.183,7.522,7.522,0,0,1,1.832-7.119,7.7,7.7,0,0,1,5.651-2.427,8.051,8.051,0,0,1,1.553.152,176.091,176.091,0,0,1,38.212,12.42,7.718,7.718,0,0,1,4.009,9.682,175.628,175.628,0,0,1-18.254,35.734A7.777,7.777,0,0,1,186.161,445.466ZM166.7,391.69a183.283,183.283,0,0,0,19.21,46.339.947.947,0,0,0,.338.082.352.352,0,0,0,.308-.173,168.035,168.035,0,0,0,17.5-34.244.423.423,0,0,0-.208-.493,168.862,168.862,0,0,0-36.621-11.9.509.509,0,0,0-.144-.022.4.4,0,0,0-.309.157l-3.607,1.175,3.533-.923Zm421.24,35.124h0l-22.364-7.268,1.69-5.206,22.365,7.269-1.69,5.2Zm-485.888,0h0l-1.69-5.2,22.364-7.269,1.69,5.206-22.363,7.268Zm-72.91-19.1a1.332,1.332,0,0,1-1.3-1.092l-.628-4.063a1.3,1.3,0,0,1,1.081-1.479l11.116-1.719-2.07-13.329-11.109,1.723a1.475,1.475,0,0,1-.184.012,1.284,1.284,0,0,1-1.3-1.088l-.625-4.02a1.322,1.322,0,0,1,1.088-1.481L54.1,376.7a1.123,1.123,0,0,1,.187-.016,1.355,1.355,0,0,1,1.3,1.1l.617,4.009a1.3,1.3,0,0,1-1.081,1.482l-11.591,1.8L45.6,398.393,57.193,396.6a1.208,1.208,0,0,1,.195-.016,1.36,1.36,0,0,1,.773.25,1.278,1.278,0,0,1,.508.847l.628,4.055a1.306,1.306,0,0,1-1.081,1.479L29.326,407.7A1.008,1.008,0,0,1,29.145,407.71Zm566.019-6.739h0l-23-4.889,1.143-5.356,23,4.889-1.138,5.355Zm-500.327,0h0l-1.143-5.355,23-4.889,1.139,5.356-23,4.889Zm559.652-.168a10.578,10.578,0,0,1-1.388-.1,10.349,10.349,0,0,1-6.86-4.016,10.2,10.2,0,0,1-2.029-7.622l.7-5.017-9.832-1.358a1.335,1.335,0,0,1-.847-.508,1.31,1.31,0,0,1-.26-.953l.555-4.027a1.278,1.278,0,0,1,1.287-1.117,1.532,1.532,0,0,1,.181.011l28.962,4.005a1.315,1.315,0,0,1,1.11,1.461l-1.424,10.288a10.407,10.407,0,0,1-3.46,6.415A10.184,10.184,0,0,1,654.489,400.8Zm-3.337-15.885-.639,4.626a4.036,4.036,0,0,0,.792,3.012,4.123,4.123,0,0,0,2.746,1.606,3.457,3.457,0,0,0,.531.041,3.627,3.627,0,0,0,2.21-.764,4.236,4.236,0,0,0,1.607-2.8l.646-4.63Zm-51.509-10.4h0l-23.386-2.457.57-5.448,23.391,2.457-.573,5.447Zm-509.289,0h0l-.57-5.447,23.386-2.457.57,5.448-23.385,2.457ZM476.9,372.176a7.732,7.732,0,0,1-3.936-1.066,7.493,7.493,0,0,1-3.679-5.64,176.049,176.049,0,0,1,0-40.944,7.489,7.489,0,0,1,3.679-5.637,7.8,7.8,0,0,1,6.9-.482A200.676,200.676,0,0,0,529.8,331.759a7.621,7.621,0,0,1,6.673,7.316c.063,2,.1,4,.1,5.925,0,1.965-.033,3.958-.1,5.926a7.617,7.617,0,0,1-6.673,7.316,200.329,200.329,0,0,0-49.936,13.351A7.65,7.65,0,0,1,476.9,372.176Zm-.007-47.058a.436.436,0,0,0-.226.062A148.467,148.467,0,0,0,475.388,345a169.517,169.517,0,0,0,1.143,19.627c.159.181.269.251.393.251a.425.425,0,0,0,.162-.036,207.376,207.376,0,0,1,51.754-13.837.354.354,0,0,0,.336-.307c.063-1.925.1-3.842.1-5.7,0-1.8-.031-3.721-.091-5.7a.364.364,0,0,0-.337-.307,207.62,207.62,0,0,1-51.757-13.836A.577.577,0,0,0,476.888,325.118ZM213.1,372.176a7.656,7.656,0,0,1-2.968-.584,200.289,200.289,0,0,0-49.939-13.347,7.624,7.624,0,0,1-6.674-7.316c-.063-1.993-.094-3.988-.094-5.929,0-1.981.033-3.975.1-5.925a7.617,7.617,0,0,1,6.673-7.316A200.433,200.433,0,0,0,210.132,318.4a7.835,7.835,0,0,1,6.9.479,7.51,7.51,0,0,1,3.687,5.644,176.742,176.742,0,0,1,0,40.947,7.509,7.509,0,0,1-3.687,5.64A7.752,7.752,0,0,1,213.1,372.176Zm-.032-47.055a.44.44,0,0,0-.158.033,207.371,207.371,0,0,1-51.754,13.839.356.356,0,0,0-.336.307c-.063,1.911-.094,3.828-.094,5.7s.032,3.788.094,5.7a.355.355,0,0,0,.332.307,207.5,207.5,0,0,1,51.757,13.833.45.45,0,0,0,.186.04.518.518,0,0,0,.238-.062A150.725,150.725,0,0,0,214.609,345a170.38,170.38,0,0,0-1.139-19.626A.556.556,0,0,0,213.068,325.121Zm438.208,25.724h-.014A4.6,4.6,0,0,1,648,349.461a4.856,4.856,0,0,1-1.424-3.453,4.756,4.756,0,0,1,4.7-4.68h.007a4.855,4.855,0,0,1,3.4,1.4,4.654,4.654,0,0,1,1.413,3.3,4.845,4.845,0,0,1-4.82,4.816Zm-49.943-3.107H577.818v-5.477h23.515v5.475Zm-489.152,0H88.667v-5.477h23.514v5.475Zm-73.326-.216h-.037a4.837,4.837,0,0,1-3.395-1.42,4.665,4.665,0,0,1-1.4-3.307,4.8,4.8,0,0,1,1.445-3.4,4.73,4.73,0,0,1,3.376-1.4h.041a4.838,4.838,0,0,1,4.666,4.859A4.77,4.77,0,0,1,38.856,347.522Zm537.97-24.135h0l-.57-5.446,23.387-2.461.573,5.447-23.39,2.461Zm-463.655,0h0l-23.385-2.461.57-5.447,23.386,2.461-.57,5.446Zm-58.989-8.141a1.476,1.476,0,0,1-.175-.011l-29-3.9a1.279,1.279,0,0,1-.859-.5,1.293,1.293,0,0,1-.256-.96l1.381-10.3a10.318,10.318,0,0,1,3.957-6.841,9.983,9.983,0,0,1,7.554-2.063,10.379,10.379,0,0,1,8.941,11.605l-.676,5.024,9.843,1.321a1.307,1.307,0,0,1,.85.508,1.284,1.284,0,0,1,.263.953l-.544,4.027a1.275,1.275,0,0,1-.492.858A1.33,1.33,0,0,1,54.182,315.246ZM35.428,297.207a4.037,4.037,0,0,0-3.9,3.578L30.9,305.41l7.9,1.063.62-4.626a4.076,4.076,0,0,0-3.556-4.614A3.743,3.743,0,0,0,35.428,297.207ZM635.7,312.267a1.33,1.33,0,0,1-1.292-1.092l-.643-4.016a1.3,1.3,0,0,1,1.077-1.486l11.595-1.847L644.314,290.5l-11.6,1.847a1.4,1.4,0,0,1-.191.013,1.287,1.287,0,0,1-1.292-1.086l-.65-4.06a1.325,1.325,0,0,1,1.074-1.482l28.9-4.611a1.208,1.208,0,0,1,.2-.016,1.307,1.307,0,0,1,.765.253,1.267,1.267,0,0,1,.522.836l.646,4.056a1.274,1.274,0,0,1-1.073,1.482l-11.117,1.777,2.128,13.33,11.117-1.771a1.2,1.2,0,0,1,.216-.02,1.3,1.3,0,0,1,.755.25,1.281,1.281,0,0,1,.511.847l.642,4.012a1.291,1.291,0,0,1-.24.96,1.337,1.337,0,0,1-.84.526l-28.893,4.607A1.133,1.133,0,0,1,635.7,312.267Zm-112.82-6.3a8.14,8.14,0,0,1-1.562-.157,175.816,175.816,0,0,1-38.206-12.38,7.719,7.719,0,0,1-4.012-9.682,175.749,175.749,0,0,1,18.255-35.734,7.6,7.6,0,0,1,6.389-3.486c.1,0,.209,0,.313.006a7.534,7.534,0,0,1,6.323,3.735,190.521,190.521,0,0,1,19.97,48.139,7.551,7.551,0,0,1-1.833,7.123A7.7,7.7,0,0,1,522.881,305.969Zm-19.138-54.086a.352.352,0,0,0-.306.176,168.207,168.207,0,0,0-17.5,34.244.425.425,0,0,0,.208.493,168.749,168.749,0,0,0,36.614,11.858.585.585,0,0,0,.1.009.479.479,0,0,0,.35-.144l3.607-1.184-3.534.924a183.217,183.217,0,0,0-19.2-46.292A.927.927,0,0,0,503.743,251.883ZM167.111,305.969a7.694,7.694,0,0,1-5.63-2.432,7.551,7.551,0,0,1-1.836-7.123,190.462,190.462,0,0,1,19.97-48.143,7.531,7.531,0,0,1,6.322-3.735c.09,0,.183-.005.276-.005a7.731,7.731,0,0,1,6.427,3.484A175.633,175.633,0,0,1,210.9,283.75a7.713,7.713,0,0,1-4.016,9.686,175.515,175.515,0,0,1-38.2,12.377A7.9,7.9,0,0,1,167.111,305.969Zm19.032-54.134a178.865,178.865,0,0,0-19.43,46.427c.122.285.245.4.425.4a.505.505,0,0,0,.1-.011,168.368,168.368,0,0,0,36.61-11.858.428.428,0,0,0,.208-.493,168.323,168.323,0,0,0-17.5-34.244.474.474,0,0,0-.4-.223h-.014ZM573.3,299.27h0l-1.143-5.354,23-4.889,1.138,5.356-23,4.888Zm-456.605,0h0l-23-4.888,1.143-5.356,23,4.889-1.139,5.354Zm450.57-23.613h0l-1.69-5.2,22.365-7.265,1.69,5.206-22.364,7.264Zm-444.539,0h0l-22.363-7.264,1.69-5.206,22.364,7.265-1.69,5.2Zm329.291-2.438a7.45,7.45,0,0,1-4.658-1.629,175.014,175.014,0,0,1-28.955-28.958,7.5,7.5,0,0,1-1.38-6.59,7.811,7.811,0,0,1,4.549-5.214A200.6,200.6,0,0,0,466.3,204.967a7.672,7.672,0,0,1,4.706-1.61,7.562,7.562,0,0,1,5.206,2.07c2.925,2.749,5.737,5.56,8.357,8.357a7.613,7.613,0,0,1,.456,9.915,200.547,200.547,0,0,0-25.855,44.726,7.815,7.815,0,0,1-5.216,4.549A8.014,8.014,0,0,1,452.02,273.218Zm18.987-62.549a.492.492,0,0,0-.274.091,207.111,207.111,0,0,1-46.358,26.8.467.467,0,0,0-.281.314A148.216,148.216,0,0,0,437.2,252.8a168.744,168.744,0,0,0,14.691,13.063c.294,0,.468-.043.547-.241a207.321,207.321,0,0,1,26.8-46.357.379.379,0,0,0,.019-.479c-2.6-2.764-5.3-5.469-8.043-8.039A.286.286,0,0,0,471.007,210.669ZM237.973,273.218a7.718,7.718,0,0,1-7.145-4.793,200.623,200.623,0,0,0-25.861-44.73,7.626,7.626,0,0,1,.464-9.915c2.613-2.79,5.422-5.6,8.349-8.353a7.582,7.582,0,0,1,5.21-2.07,7.671,7.671,0,0,1,4.705,1.61,200.579,200.579,0,0,0,44.73,25.861,7.813,7.813,0,0,1,4.549,5.217,7.518,7.518,0,0,1-1.384,6.59,175.117,175.117,0,0,1-28.954,28.954A7.436,7.436,0,0,1,237.973,273.218Zm-18.985-62.549a.306.306,0,0,0-.208.076c-2.749,2.582-5.452,5.286-8.035,8.035a.381.381,0,0,0,.014.482,207.35,207.35,0,0,1,26.8,46.361.475.475,0,0,0,.314.282A150.462,150.462,0,0,0,252.8,252.8a168.746,168.746,0,0,0,13.063-14.691c.018-.314-.047-.461-.241-.545a207.261,207.261,0,0,1-46.357-26.8A.484.484,0,0,0,218.989,210.669ZM63.623,266.238a1.371,1.371,0,0,1-.4-.062l-27.841-8.941a1.307,1.307,0,0,1-.76-.643,1.286,1.286,0,0,1-.076-.986L38.41,243.58a10.1,10.1,0,0,1,9.574-7.029,9.833,9.833,0,0,1,2.984.465,9.385,9.385,0,0,1,4.6,3.267,11.217,11.217,0,0,1,2.163,5.58l12.041-2.242a1.645,1.645,0,0,1,.234-.017,1.359,1.359,0,0,1,1.036.437,1.285,1.285,0,0,1,.238,1.277l-1.417,4.415a1.212,1.212,0,0,1-.964.868l-12.658,1.967-1.27,3.969,10.284,3.3a1.324,1.324,0,0,1,.836,1.635l-1.238,3.866a1.276,1.276,0,0,1-.635.751A1.321,1.321,0,0,1,63.623,266.238ZM47.91,243.211a3.967,3.967,0,0,0-3.735,2.729l-2.063,6.421,7.5,2.409,2.063-6.421a4.037,4.037,0,0,0-2.658-4.965A3.629,3.629,0,0,0,47.91,243.211Zm579.662,13.846a1.43,1.43,0,0,1-.592-.128,15.522,15.522,0,0,1-7.922-8.882,16.331,16.331,0,0,1,.538-12.528,16.158,16.158,0,0,1,9.2-8.457,16.53,16.53,0,0,1,5.634-1,16.388,16.388,0,0,1,15.38,10.818,15.425,15.425,0,0,1-.219,11.774,1.284,1.284,0,0,1-.73.749,1.142,1.142,0,0,1-.46.1,1.31,1.31,0,0,1-.573-.136l-3.531-1.581a1.172,1.172,0,0,1-.661-.638,1.3,1.3,0,0,1,.051-1.008,9.926,9.926,0,0,0,.12-6.933,9.3,9.3,0,0,0-8.881-6.114,10.426,10.426,0,0,0-3.568.637,9.493,9.493,0,0,0-5.94,12.194,10.108,10.108,0,0,0,4.48,5.26,1.258,1.258,0,0,1,.551,1.624l-1.731,3.545a1.09,1.09,0,0,1-.627.609A1.477,1.477,0,0,1,627.572,257.056Zm-68.767-4.25h0l-2.223-5,21.478-9.565,2.227,5-21.481,9.565Zm-427.606,0h0l-21.484-9.565,2.223-5,21.486,9.565-2.223,5Zm416.8-21.847h0l-2.737-4.741,20.368-11.759,2.738,4.743L548,230.959ZM142,230.96h0L121.637,219.2l2.739-4.743,20.364,11.759L142,230.959Zm203-9.05a177.116,177.116,0,0,1-20.473-1.19,7.508,7.508,0,0,1-5.644-3.687,7.811,7.811,0,0,1-.479-6.9,200.125,200.125,0,0,0,13.348-49.939,7.635,7.635,0,0,1,7.32-6.674c1.977-.061,3.97-.091,5.924-.091,1.993,0,3.988.032,5.93.095a7.617,7.617,0,0,1,7.316,6.673,200.211,200.211,0,0,0,13.351,49.936,7.808,7.808,0,0,1-.478,6.9,7.509,7.509,0,0,1-5.64,3.687A177.217,177.217,0,0,1,345,221.909Zm0-61.178c-1.88,0-3.8.029-5.7.086a.363.363,0,0,0-.307.343,207.46,207.46,0,0,1-13.836,51.75.474.474,0,0,0,.022.424,151.038,151.038,0,0,0,19.863,1.3,170.654,170.654,0,0,0,19.591-1.167c.234-.212.291-.363.211-.559a207.586,207.586,0,0,1-13.837-51.754.357.357,0,0,0-.307-.336C348.834,160.762,346.915,160.731,345,160.731ZM76.221,213.462H76.2a16.545,16.545,0,0,1-7.966-2.088,16.367,16.367,0,0,1-7.868-9.759,16.36,16.36,0,0,1,15.7-20.906,16.531,16.531,0,0,1,7.952,2.068,16.158,16.158,0,0,1,6.377,22.2,16.52,16.52,0,0,1-6.074,6.283A16.012,16.012,0,0,1,76.221,213.462Zm-.047-26.038a10.065,10.065,0,0,0-4.939,1.3,9.481,9.481,0,0,0-3.655,3.667A9.7,9.7,0,1,0,80.8,188.6,9.572,9.572,0,0,0,76.174,187.424Zm327.407,23.954a7.725,7.725,0,0,1-7.017-4.491,175.947,175.947,0,0,1-12.38-38.2,7.769,7.769,0,0,1,2.285-7.211,7.505,7.505,0,0,1,7.119-1.822,190.209,190.209,0,0,1,48.137,19.963,7.533,7.533,0,0,1,3.738,6.331,7.745,7.745,0,0,1-3.487,6.7,175.47,175.47,0,0,1-35.73,18.254A7.609,7.609,0,0,1,403.581,211.378Zm-11.843-44.661c-.327.138-.442.29-.394.526a168.829,168.829,0,0,0,11.857,36.61.456.456,0,0,0,.4.218.35.35,0,0,0,.1-.013,168.082,168.082,0,0,0,34.244-17.5.462.462,0,0,0,.227-.412A178.773,178.773,0,0,0,391.738,166.717ZM286.416,211.378a7.619,7.619,0,0,1-2.666-.482,175.619,175.619,0,0,1-35.734-18.254,7.747,7.747,0,0,1-3.479-6.7,7.534,7.534,0,0,1,3.731-6.331,190.409,190.409,0,0,1,48.143-19.967,7.685,7.685,0,0,1,1.934-.249,7.546,7.546,0,0,1,5.185,2.074,7.76,7.76,0,0,1,2.282,7.207,175.4,175.4,0,0,1-12.38,38.205A7.725,7.725,0,0,1,286.416,211.378Zm12.1-44.588h0a178.639,178.639,0,0,0-46.552,19.123c-.134.331-.109.512.092.646a168.148,168.148,0,0,0,34.244,17.5.35.35,0,0,0,.1.013.451.451,0,0,0,.395-.222,168.477,168.477,0,0,0,11.858-36.607.473.473,0,0,0-.135-.453Zm236.443,43.576h0l-3.216-4.427,19.028-13.822,3.217,4.428-19.027,13.822Zm-379.923,0h0l-19.027-13.822,3.216-4.428,19.028,13.822-3.215,4.427Zm447.649-2.771h0a1.286,1.286,0,0,1-1.11-.675l-2.352-4a1.226,1.226,0,0,1-.007-1.292l6.966-10.759-2.118-3.6-9.313,5.48a1.271,1.271,0,0,1-.645.173,1.312,1.312,0,0,1-1.133-.632l-2.056-3.5a1.3,1.3,0,0,1,.453-1.775L616.586,172.2a1.291,1.291,0,0,1,.657-.18,1.234,1.234,0,0,1,.332.045,1.273,1.273,0,0,1,.781.6l6.4,10.886a10.093,10.093,0,0,1,1.106,7.616,9.826,9.826,0,0,1-4.575,6.123,9.369,9.369,0,0,1-4.757,1.294,10.957,10.957,0,0,1-6.348-2.134l-6.349,10.478A1.356,1.356,0,0,1,602.688,207.595Zm13.055-27.129-6.794,3.99,3.416,5.812a3.955,3.955,0,0,0,3.421,1.882,4.078,4.078,0,0,0,2.059-.553,3.938,3.938,0,0,0,1.318-5.319Zm-95.892,10.785h0l-3.664-4.07,17.476-15.739,3.665,4.071L519.852,191.25Zm-349.706,0h0l-17.472-15.738,3.666-4.071,17.473,15.739-3.665,4.07Zm332.675-17.44h0l-4.07-3.665,15.735-17.473,4.071,3.666L502.821,173.81Zm-315.64,0h0l-15.739-17.472,4.071-3.666,15.739,17.473-4.07,3.665Zm-66.693-13.968a1.589,1.589,0,0,1-.344-.041L88.55,151.329a1.229,1.229,0,0,1-.632-2.04l2.869-3.469a1.28,1.28,0,0,1,.985-.464,1.191,1.191,0,0,1,.363.055l19.386,5.414-8.915-18.065a1.253,1.253,0,0,1,.165-1.38l2.873-3.469a1.283,1.283,0,0,1,.979-.5,1.174,1.174,0,0,1,.171.013,1.269,1.269,0,0,1,.978.737L121.9,157.666a1.244,1.244,0,0,1-.167,1.377l-.277.336A1.239,1.239,0,0,1,120.487,159.843Zm363.575-1.589h0l-4.427-3.215,13.821-19.028,4.429,3.216-13.822,19.027Zm-278.124,0h0l-13.822-19.027,4.428-3.216,13.822,19.028-4.427,3.215Zm367.583-.131c-.267,0-.547-.009-.858-.029a13.042,13.042,0,0,1-11.982-13.661,12.5,12.5,0,0,1,4.282-8.649l13.825-12.124a1.3,1.3,0,0,1,.845-.3,1.315,1.315,0,0,1,.985.425l2.759,3.157a1.256,1.256,0,0,1,.325.931,1.321,1.321,0,0,1-.441.895l-13.585,11.916a6,6,0,0,0,3.643,10.686,6.341,6.341,0,0,0,4.2-1.669l13.621-11.953a1.3,1.3,0,0,1,.853-.32,1.287,1.287,0,0,1,.973.444l2.767,3.158a1.325,1.325,0,0,1-.113,1.825l-13.829,12.121A12.538,12.538,0,0,1,573.521,158.123ZM463.779,144.74h0L459.036,142,470.8,121.637l4.742,2.739-11.758,20.363Zm-237.561,0h0l-11.759-20.363,4.743-2.739L230.96,142l-4.741,2.738ZM442.2,133.422h0l-5-2.223,9.561-21.485,5.006,2.223L442.2,133.421Zm-194.4,0h0l-9.565-21.485,5-2.223,9.565,21.485-5,2.223Zm-97.382-5.331a1.316,1.316,0,0,1-.978-.423L130.107,105.73a1.279,1.279,0,0,1-.31-.934,1.3,1.3,0,0,1,.423-.895l3.082-2.716a1.3,1.3,0,0,1,.855-.309,1.281,1.281,0,0,1,.977.43l19.331,21.93a1.338,1.338,0,0,1,.311.939,1.283,1.283,0,0,1-.424.89l-3.077,2.716A1.3,1.3,0,0,1,150.42,128.092Zm269.126-3.673h0l-5.206-1.69,7.266-22.364,5.206,1.69-7.264,22.363Zm-149.1,0h0l-7.265-22.363,5.206-1.69,7.265,22.364-5.2,1.69Zm263.149-1.85a1.3,1.3,0,0,1-.785-.259l-3.213-2.49a1.3,1.3,0,0,1-.238-1.814l7.181-9.284-10.668-8.248-7.177,9.281a1.3,1.3,0,0,1-1.819.229l-3.245-2.512a1.325,1.325,0,0,1-.233-1.818l17.885-23.131a1.336,1.336,0,0,1,1.043-.484,1.243,1.243,0,0,1,.772.257l3.249,2.512a1.293,1.293,0,0,1,.238,1.818l-6.878,8.894,10.664,8.254,6.881-8.9a1.292,1.292,0,0,1,1.814-.234l3.217,2.487a1.29,1.29,0,0,1,.485.865,1.318,1.318,0,0,1-.256.957L534.63,122.075A1.3,1.3,0,0,1,533.6,122.568Zm-137.518-4.731h0l-5.355-1.139,4.889-23,5.356,1.143-4.889,23Zm-102.167,0h0l-4.889-23,5.356-1.143,4.888,23-5.354,1.139Zm78.145-4.1h0l-5.447-.57,2.457-23.386,5.448.57-2.457,23.385Zm-54.12,0h0L315.48,90.354l5.447-.57,2.461,23.386-5.446.57Zm29.8-1.559h-5.477V88.667h5.477V112.18ZM180.01,104.69a1.176,1.176,0,0,1-.336-.047,1.291,1.291,0,0,1-.774-.57l-15.523-24.8a1.358,1.358,0,0,1-.165-1,1.214,1.214,0,0,1,.54-.763l8.879-5.557a16.017,16.017,0,0,1,16.077-.519,15.787,15.787,0,0,1,5.882,5.51,16,16,0,0,1-5.067,22.008l-8.878,5.557A1.236,1.236,0,0,1,180.01,104.69ZM180.667,76a9.767,9.767,0,0,0-5.162,1.541l-3.884,2.431,10.226,16.349,3.884-2.435a9.387,9.387,0,0,0,4.3-5.936,9.8,9.8,0,0,0-1.391-7.284A9.375,9.375,0,0,0,180.667,76Zm305.016,12.57a15.811,15.811,0,0,1-7.21-1.77,16.347,16.347,0,0,1-8.185-9.51,16.342,16.342,0,0,1,10.445-20.656,16.323,16.323,0,0,1,12.525.967,15.375,15.375,0,0,1,7.9,8.741,1.265,1.265,0,0,1-.8,1.723l-3.65,1.264a1.238,1.238,0,0,1-.447.084,1.153,1.153,0,0,1-.481-.1,1.275,1.275,0,0,1-.646-.77,9.966,9.966,0,0,0-4.662-5.137,9.149,9.149,0,0,0-4.159-1,9.792,9.792,0,0,0-8.673,5.534,9.9,9.9,0,0,0-.687,7.342,9.2,9.2,0,0,0,4.71,5.622,9.7,9.7,0,0,0,4.413,1.04,11.691,11.691,0,0,0,2.45-.27,1.245,1.245,0,0,1,.325-.043,1.263,1.263,0,0,1,1.194.846l1.169,3.764a1.125,1.125,0,0,1-.048.88,1.421,1.421,0,0,1-.825.733A15.706,15.706,0,0,1,485.683,88.572ZM229.434,77.66a1.29,1.29,0,0,1-1.209-.811L217.449,49.662a1.336,1.336,0,0,1,.014-1,1.282,1.282,0,0,1,.715-.682l16.713-6.627a1.325,1.325,0,0,1,.481-.092,1.226,1.226,0,0,1,.512.111,1.281,1.281,0,0,1,.689.707l1.333,3.37a1.3,1.3,0,0,1-.723,1.683l-11.734,4.647,2.333,5.889,9.719-3.855a1.257,1.257,0,0,1,.458-.085,1.329,1.329,0,0,1,.527.11,1.311,1.311,0,0,1,.693.7l1.354,3.41a1.3,1.3,0,0,1-.73,1.683l-9.722,3.851,2.516,6.338,11.733-4.647a1.25,1.25,0,0,1,.47-.091,1.309,1.309,0,0,1,1.209.813l1.333,3.37a1.3,1.3,0,0,1-.723,1.683l-16.714,6.622A1.274,1.274,0,0,1,229.434,77.66ZM276.65,61.841a1.345,1.345,0,0,1-1.289-1.04L269.6,31.634a1.282,1.282,0,0,1,1.03-1.475l1.273-.252.161.117L292.99,44.981l-3.318-16.807a1.3,1.3,0,0,1,1.026-1.523l3.982-.788a1.237,1.237,0,0,1,.226-.021,1.33,1.33,0,0,1,.738.225,1.271,1.271,0,0,1,.563.81l5.754,29.17a1.215,1.215,0,0,1-.186.914,1.354,1.354,0,0,1-.843.565l-1.238.245-.161-.121L278.388,41.995l3.46,17.524a1.311,1.311,0,0,1-1.019,1.523l-3.947.781A1.293,1.293,0,0,1,276.65,61.841Zm128.858-1.774a1,1,0,0,1-.216-.019L387.58,56.934a1.276,1.276,0,0,1-.836-.529,1.293,1.293,0,0,1-.216-.971l5.064-28.808a1.274,1.274,0,0,1,1.254-1.076,1.293,1.293,0,0,1,.243.023l17.709,3.11a1.3,1.3,0,0,1,.84.534,1.315,1.315,0,0,1,.216.975l-.628,3.563a1.31,1.31,0,0,1-.536.84,1.25,1.25,0,0,1-.726.234,1.329,1.329,0,0,1-.241-.022l-12.427-2.183-1.1,6.24,10.3,1.807a1.279,1.279,0,0,1,.829.54,1.315,1.315,0,0,1,.222.968l-.632,3.6a1.286,1.286,0,0,1-1.259,1.078,1.258,1.258,0,0,1-.242-.024l-10.3-1.814-1.186,6.718,12.438,2.187a1.27,1.27,0,0,1,.829.526,1.3,1.3,0,0,1,.222.975l-.632,3.567A1.288,1.288,0,0,1,405.508,60.067Zm-58.691-5.681h-.077a16.354,16.354,0,0,1-11.554-4.7,16.161,16.161,0,0,1-4.852-11.551A16.372,16.372,0,0,1,346.679,21.66h.088a15.4,15.4,0,0,1,10.927,4.176,1.282,1.282,0,0,1,.069,1.906l-2.677,2.786a1.155,1.155,0,0,1-.825.409h-.049a1.222,1.222,0,0,1-.882-.4,9.95,9.95,0,0,0-6.455-2.446h-.036a9.539,9.539,0,0,0-9.365,9.879,9.508,9.508,0,0,0,9.441,9.711h.044a10.14,10.14,0,0,0,6.469-2.443,1.291,1.291,0,0,1,.854-.321,1.212,1.212,0,0,1,.857.344l2.76,2.825a1.117,1.117,0,0,1,.357.8,1.4,1.4,0,0,1-.4,1.03A15.545,15.545,0,0,1,346.818,54.386Z" fill="#ffffff" />
  </g>
</svg>
